<svg xmlns="http://www.w3.org/2000/svg" viewBox="-16 -6 132 132" width="256" height="256">
  <defs>
    <filter id="rough" x="-20%" y="-20%" width="140%" height="140%">
      <feTurbulence type="turbulence" baseFrequency="0.011 0.014" numOctaves="3" seed="12" result="n"></feTurbulence>
      <feDisplacementMap in="SourceGraphic" in2="n" scale="6.5" xChannelSelector="R" yChannelSelector="G"></feDisplacementMap>
    </filter>
  </defs>
  <g filter="url(#rough)">
    <g fill="none" stroke="#E1701F" stroke-width="2.5" stroke-linecap="round" stroke-linejoin="round">
      <path d="M50 36.4 L67.6 46.8"></path><path d="M67.6 46.8 L67.6 69.2"></path><path d="M67.6 69.2 L50 79.6"></path><path d="M50 79.6 L32.4 69.2"></path><path d="M32.4 69.2 L32.4 46.8"></path><path d="M32.4 46.8 L50 36.4"></path><path d="M50 57.2 L67.6 46.8"></path><path d="M50 57.2 L32.4 46.8"></path><path d="M50 57.2 L50 79.6"></path>
    </g>
    <g fill="none" stroke="#24262B" stroke-width="3.3" stroke-linecap="round" stroke-linejoin="round">
      <path d="M50 4 L96 31"></path><path d="M94 29 L94 87"></path><path d="M96 85 L50 112"></path><path d="M50 112 L4 85"></path><path d="M6 87 L6 29"></path><path d="M4 31 L50 4"></path><path d="M50 56 L95 30"></path><path d="M50 56 L5 30"></path><path d="M50 56 L50 112"></path>
    </g>
  </g>
</svg>